<svg height="512pt" viewBox="-51 0 512 512" width="512pt" xmlns="http://www.w3.org/2000/svg"><path d="m25.601562 512h358.398438c14.136719 0 25.601562-11.460938 25.601562-25.601562v-290.132813c0-14.136719-11.464843-25.597656-25.601562-25.597656h-42.667969v-34.132813c0-75.40625-61.125-136.535156-136.53125-136.535156s-136.535156 61.128906-136.535156 136.535156v34.132813h-42.664063c-14.140624 0-25.601562 11.460937-25.601562 25.597656v290.132813c0 14.140624 11.460938 25.601562 25.601562 25.601562zm59.730469-375.464844c0-65.980468 53.488281-119.46875 119.46875-119.46875s119.464844 53.488282 119.464844 119.46875v34.132813h-25.597656v-34.132813c0-51.84375-42.027344-93.867187-93.867188-93.867187-51.84375 0-93.867187 42.023437-93.867187 93.867187v34.132813h-25.601563zm196.269531 34.132813h-153.601562v-34.132813c0-42.417968 34.382812-76.800781 76.800781-76.800781 42.414063 0 76.800781 34.382813 76.800781 76.800781zm-256 17.066406h358.398438c4.710938 0 8.535156 3.820313 8.535156 8.53125v94.226563c-.585937-.183594-1.183594-.304688-1.792968-.359376h-30.992188c-4.714844 0-8.535156 3.820313-8.535156 8.535157 0 4.710937 3.820312 8.53125 8.535156 8.53125h30.992188c.609374-.054688 1.207031-.171875 1.792968-.359375v43.386718c-.585937-.183593-1.183594-.304687-1.792968-.359374h-30.992188c-4.714844 0-8.535156 3.820312-8.535156 8.53125 0 4.714843 3.820312 8.535156 8.535156 8.535156h30.992188c.609374-.054688 1.207031-.175782 1.792968-.359375v51.917969c-.585937-.183594-1.183594-.304688-1.792968-.359376h-30.992188c-4.714844 0-8.535156 3.820313-8.535156 8.535157 0 4.710937 3.820312 8.53125 8.535156 8.53125h30.992188c.609374-.054688 1.207031-.171875 1.792968-.359375v51.558594c0 4.714843-3.824218 8.535156-8.535156 8.535156h-358.398438c-4.714843 0-8.535156-3.820313-8.535156-8.535156v-51.558594c.582032.1875 1.183594.304687 1.792969.359375h30.992187c4.714844 0 8.535157-3.820313 8.535157-8.53125 0-4.714844-3.820313-8.535157-8.535157-8.535157h-30.992187c-.609375.054688-1.210937.175782-1.792969.359376v-51.917969c.582032.183593 1.183594.304687 1.792969.359375h30.992187c4.714844 0 8.535157-3.820313 8.535157-8.535156 0-4.710938-3.820313-8.53125-8.535157-8.53125h-30.992187c-.609375.054687-1.210937.175781-1.792969.359374v-43.386718c.582032.1875 1.183594.304687 1.792969.359375h30.992187c4.714844 0 8.535157-3.820313 8.535157-8.53125 0-4.714844-3.820313-8.535157-8.535157-8.535157h-30.992187c-.609375.054688-1.210937.175782-1.792969.359376v-94.226563c0-4.710937 3.820313-8.53125 8.535156-8.53125zm0 0"/><path d="m136.992188 401.015625c-4.109376-2.300781-9.308594-.835937-11.613282 3.277344-1.816406 3.234375-2.6875 4.523437-4.972656 7.925781-2.289062 3.40625-4.582031 6.503906-7.058594 9.609375-2.941406 3.683594-2.339844 9.054687 1.34375 11.992187 3.683594 2.941407 9.054688 2.339844 11.996094-1.34375 2.761719-3.464843 5.382812-7.039062 8.222656-11.253906 1.933594-2.773437 3.722656-5.640625 5.359375-8.59375 2.304688-4.113281.835938-9.3125-3.277343-11.613281zm0 0"/><path d="m145.152344 382.351562c.777344.226563 1.585937.34375 2.398437.34375 3.789063-.003906 7.121094-2.507812 8.183594-6.144531l1.023437-3.644531c1.160157-4.402344 2.160157-8.933594 2.945313-13.441406.785156-4.503906 1.40625-9.171875 1.816406-13.847656.410157-4.675782.613281-9.402344.613281-14.175782-.007812-2.890625.277344-5.773437.855469-8.609375.558594-2.742187 1.390625-5.417969 2.480469-7.996093 5.464844-12.945313 16.957031-22.371094 30.722656-25.199219 2.828125-.570313 5.710938-.855469 8.601563-.851563 4.710937 0 8.53125-3.820312 8.53125-8.535156 0-4.710938-3.820313-8.53125-8.53125-8.53125-4.042969 0-8.074219.40625-12.035157 1.210938-7.628906 1.578124-14.875 4.636718-21.332031 8.996093-3.164062 2.144531-6.121093 4.585938-8.832031 7.285157-5.453125 5.441406-9.800781 11.890624-12.800781 18.988281-1.53125 3.613281-2.699219 7.371093-3.480469 11.21875-.820312 3.957031-1.238281 7.984375-1.246094 12.023437 0 4.269532-.179687 8.535156-.546875 12.691406-.367187 4.15625-.910156 8.34375-1.621093 12.382813-.707032 4.035156-1.59375 8.070313-2.636719 11.996094l-.902344 3.25c-.636719 2.175781-.386719 4.511719.703125 6.496093 1.085938 1.988282 2.917969 3.460938 5.089844 4.09375zm0 0"/><path d="m263.953125 349.148438c.382813-5.859376.582031-11.824219.582031-17.707032 0-4.035156-.40625-8.066406-1.214844-12.023437-.785156-3.847657-1.957031-7.609375-3.488281-11.226563-3.007812-7.09375-7.351562-13.542968-12.800781-18.988281-.714844-.714844-1.457031-1.40625-2.203125-2.089844-2.253906-2.054687-5.429687-2.75-8.335937-1.824219-2.90625.925782-5.097657 3.332032-5.75 6.3125-.648438 2.976563.339843 6.078126 2.59375 8.132813.554687.503906 1.101562 1.015625 1.628906 1.535156 1.933594 1.9375 3.675781 4.054688 5.207031 6.324219 4.765625 7.054688 7.304687 15.378906 7.285156 23.890625 0 5.570313-.179687 11.09375-.546875 16.574219-.363281 5.476562-.902344 10.902344-1.621094 16.273437-.714843 5.375-1.601562 10.691407-2.660156 15.949219-.625 3.097656-1.304687 6.183594-2.039062 9.238281-1.109375 4.578125 1.703125 9.191407 6.28125 10.300781.65625.164063 1.332031.242188 2.011718.238282 3.933594 0 7.359376-2.695313 8.285157-6.519532.796875-3.277343 1.527343-6.574218 2.195312-9.898437 1.136719-5.625 2.082031-11.3125 2.839844-17.066406.769531-5.714844 1.355469-11.585938 1.75-17.425781zm0 0"/><path d="m241.203125 417.707031c-2.105469-.839843-4.457031-.808593-6.539063.089844-2.078124.894531-3.71875 2.582031-4.554687 4.6875l-1.332031 3.277344c-2 4.847656-4.152344 9.613281-6.449219 14.292969-2.300781 4.683593-4.726563 9.285156-7.289063 13.808593-2.335937 4.09375-.90625 9.308594 3.1875 11.644531 4.097657 2.332032 9.308594.90625 11.644532-3.1875 2.746094-4.832031 5.351562-9.75 7.808594-14.753906 2.457031-5.007812 4.753906-10.097656 6.894531-15.277344l1.417969-3.507812c1.734374-4.378906-.410157-9.335938-4.789063-11.074219zm0 0"/><path d="m224.28125 384.375c1.332031-5.664062 2.457031-11.46875 3.363281-17.226562.902344-5.761719 1.601563-11.761719 2.054688-17.664063.453125-5.90625.699219-12.015625.699219-18.042969 0-1.730468-.171876-3.460937-.519532-5.160156-.339844-1.652344-.84375-3.261719-1.5-4.8125-1.289062-3.035156-3.148437-5.792969-5.480468-8.125-1.15625-1.164062-2.425782-2.210938-3.789063-3.121094-2.761719-1.878906-5.871094-3.191406-9.148437-3.859375-3.394532-.6875-6.894532-.6875-10.289063 0-4.90625 1.003907-9.410156 3.425781-12.953125 6.964844-3.5625 3.542969-5.996094 8.0625-7 12.988281-.34375 1.683594-.519531 3.398438-.519531 5.117188 0 4.714844 3.820312 8.535156 8.535156 8.535156 4.710937 0 8.53125-3.820312 8.53125-8.535156 0-.570313.058594-1.144532.171875-1.707032.113281-.546874.277344-1.078124.496094-1.59375.429687-1.015624 1.054687-1.941406 1.832031-2.722656.777344-.773437 1.691406-1.394531 2.699219-1.824218 1.613281-.6875 3.402344-.859376 5.117187-.496094.535157.109375 1.058594.269531 1.5625.476562.511719.222656 1 .492188 1.460938.800782.457031.3125.886719.667968 1.277343 1.058593.777344.777344 1.394532 1.695313 1.820313 2.707031.210937.503907.375 1.027344.484375 1.5625.117188.558594.175781 1.132813.179688 1.707032 0 5.585937-.214844 11.210937-.648438 16.714844-.433594 5.503906-1.066406 10.972656-1.902344 16.351562-.835937 5.375-1.886718 10.707031-3.113281 15.945312-1.230469 5.242188-2.671875 10.421876-4.269531 15.507813-1.59375 5.085937-3.414063 10.070313-5.390625 15-1.980469 4.933594-4.148438 9.753906-6.46875 14.507813-2.320313 4.753906-4.8125 9.386718-7.46875 13.867187-2.652344 4.480469-5.503907 8.976563-8.371094 13.132813l-8.574219 11.945312c-1.777344 2.480469-2.09375 5.714844-.835937 8.492188 1.257812 2.777343 3.902343 4.671874 6.9375 4.972656 3.035156.296875 5.996093-1.042969 7.773437-3.523438l8.660156-12.089844c3.183594-4.609374 6.246094-9.386718 9.121094-14.292968 2.878906-4.910156 5.597656-9.941406 8.074219-14.988282 2.476563-5.042968 4.855469-10.339843 6.980469-15.621093 2.125-5.285157 4.113281-10.789063 5.828125-16.214844 1.714843-5.425781 3.25-11.136719 4.582031-16.734375zm0 0"/><path d="m179.507812 410.847656c2.167969-4.882812 4.136719-9.890625 5.878907-14.867187 1.742187-4.972657 3.328125-10.238281 4.667969-15.4375 1.304687-5.058594 2.03125-7.945313 2.976562-13.480469.511719-3.007812-.617188-6.058594-2.964844-8.003906-2.347656-1.945313-5.554687-2.492188-8.414062-1.433594s-4.933594 3.5625-5.449219 6.570312c-.6875 4.070313-1.578125 8.101563-2.667969 12.082032-1.230468 4.734375-2.664062 9.480468-4.269531 14.078125-1.601563 4.601562-3.410156 9.117187-5.355469 13.570312-1.949218 4.453125-4.097656 8.738281-6.410156 12.996094s-4.789062 8.371094-7.414062 12.390625c-2.628907 4.019531-5.4375 7.953125-8.347657 11.714844-1.867187 2.410156-2.308593 5.632812-1.152343 8.457031 1.152343 2.820313 3.722656 4.8125 6.746093 5.226563 3.019531.410156 6.03125-.820313 7.898438-3.230469 3.191406-4.121094 6.261719-8.4375 9.136719-12.800781 2.878906-4.359376 5.609374-8.964844 8.117187-13.574219s4.898437-9.480469 7.023437-14.257813zm0 0"/><path d="m118.28125 380.269531c1.246094-3.007812 2.382812-6.078125 3.414062-9.207031 1.015626-3.113281 1.925782-6.28125 2.703126-9.488281.777343-3.207031 1.449218-6.492188 1.980468-9.804688.527344-3.3125.9375-6.664062 1.210938-10.050781.273437-3.390625.410156-6.828125.410156-10.242188 0-4.710937-3.820312-8.53125-8.535156-8.53125-4.710938 0-8.53125 3.820313-8.53125 8.53125 0 2.996094-.121094 5.972657-.359375 8.910157-.238281 2.933593-.589844 5.835937-1.050781 8.703125-.457032 2.867187-1.023438 5.683594-1.703126 8.472656-.683593 2.792969-1.46875 5.539062-2.347656 8.226562s-1.871094 5.359376-2.953125 7.960938c-1.082031 2.605469-2.261719 5.121094-3.523437 7.679688-1.265625 2.5625-2.644532 4.960937-4.089844 7.347656-1.441406 2.390625-2.992188 4.730468-4.605469 7.007812-1.902343 2.472656-2.300781 5.789063-1.039062 8.644532 1.257812 2.851562 3.976562 4.792968 7.085937 5.054687 3.109375.265625 6.113282-1.191406 7.835938-3.792969 1.871094-2.609375 3.644531-5.300781 5.316406-8.0625 1.671875-2.765625 3.242188-5.585937 4.710938-8.464844 1.460937-2.925781 2.816406-5.890624 4.070312-8.894531zm0 0"/><path d="m118.664062 294.09375c-1.835937 4.339844.191407 9.347656 4.53125 11.1875 4.339844 1.835938 9.351563-.191406 11.1875-4.53125 1.8125-4.304688 4.066407-8.40625 6.734376-12.238281 2.757812-4.082031 5.902343-7.890625 9.386718-11.375 3.484375-3.480469 7.289063-6.621094 11.363282-9.386719 8.308593-5.609375 17.636718-9.53125 27.453124-11.546875 10.21875-2.066406 20.75-2.066406 30.96875 0 9.816407 2.019531 19.144532 5.945313 27.449219 11.554687 8.183594 5.53125 15.230469 12.578126 20.753907 20.761719l1.179687 1.707031c1.714844 2.300782 3.117187 4.816407 4.171875 7.484376 1.855469 4.304687 6.839844 6.308593 11.160156 4.480468 4.316406-1.828125 6.355469-6.796875 4.558594-11.128906-1.496094-3.714844-3.445312-7.230469-5.804688-10.46875l-1.117187-1.648438c-13.722656-20.363281-34.878906-34.535156-58.929687-39.472656-12.476563-2.527344-25.335938-2.527344-37.8125 0-24.019532 4.980469-45.144532 19.144532-58.878907 39.472656-3.292969 4.753907-6.09375 9.828126-8.355469 15.148438zm0 0"/><path d="m290.132812 322.910156c-4.710937 0-8.53125 3.820313-8.53125 8.53125 0 4.792969-.121093 9.542969-.359374 14.261719-.238282 4.71875-.589844 9.386719-1.058594 14.070313-.46875 4.683593-1.042969 9.285156-1.707032 13.875-.664062 4.589843-1.492187 9.132812-2.40625 13.652343-.914062 4.523438-1.929687 8.988281-3.054687 13.417969-1.125 4.425781-2.347656 8.820312-3.679687 13.164062-1.328126 4.34375-2.761719 8.644532-4.265626 12.902344-1.5 4.257813-3.164062 8.449219-4.890624 12.605469-1.804688 4.347656.253906 9.339844 4.601562 11.152344 1.035156.4375 2.152344.664062 3.277344.664062 3.449218.003907 6.5625-2.074219 7.882812-5.261719 1.828125-4.414062 3.566406-8.875 5.179688-13.382812 1.613281-4.503906 3.148437-9.078125 4.558594-13.652344 1.40625-4.574218 2.722656-9.265625 3.90625-13.960937 1.1875-4.691407 2.269531-9.445313 3.242187-14.234375.972656-4.785156 1.8125-9.617188 2.5625-14.503906.75-4.890626 1.347656-9.765626 1.851563-14.714844.503906-4.949219.851562-9.90625 1.117187-14.914063.265625-5.007812.308594-10.070312.308594-15.140625 0-4.710937-3.820313-8.53125-8.535157-8.53125zm0 0"/><path d="m85.332031 339.976562c4.714844 0 8.535157-3.820312 8.535157-8.535156-.003907-7.511718.753906-15.003906 2.261718-22.363281 1.453125-7.136719 3.613282-14.105469 6.449219-20.8125 5.4375-12.824219 13.234375-24.511719 22.980469-34.457031 2.136718-2.179688 2.945312-5.332032 2.125-8.269532-.820313-2.9375-3.144532-5.214843-6.097656-5.972656-2.953126-.757812-6.085938.117188-8.21875 2.292969-11.25 11.46875-20.238282 24.949219-26.507813 39.742187-3.273437 7.746094-5.773437 15.796876-7.457031 24.035157-1.714844 8.488281-2.574219 17.128906-2.558594 25.789062-.011719 4.703125 3.785156 8.527344 8.488281 8.550781zm0 0"/><path d="m143.359375 237.515625c1.550781.003906 3.070313-.417969 4.394531-1.21875 10.714844-6.449219 22.453125-11.027344 34.707032-13.535156 14.757812-2.996094 29.96875-2.996094 44.730468 0 3.214844.65625 6.375 1.449219 9.480469 2.382812 2.933594.917969 6.132813.183594 8.378906-1.917969 2.242188-2.097656 3.183594-5.246093 2.460938-8.230468-.722657-2.988282-2.996094-5.359375-5.949219-6.203125-3.585938-1.0625-7.234375-1.980469-10.949219-2.746094-17.019531-3.457031-34.558593-3.457031-51.574219 0-14.160156 2.894531-27.722656 8.179687-40.109374 15.632813-3.277344 1.980468-4.835938 5.902343-3.808594 9.59375 1.027344 3.691406 4.390625 6.242187 8.222656 6.242187zm0 0"/><path d="m283.238281 252.996094c20.84375 20.78125 32.539063 49.015625 32.496094 78.445312 0 2.390625-.027344 4.765625-.078125 7.128906-.058594 2.371094-.136719 4.726563-.253906 7.089844-.121094 2.363282-.242188 4.710938-.402344 7.046875-.164062 2.339844-.351562 4.6875-.5625 7-.214844 2.3125-.453125 4.648438-.71875 6.96875-.265625 2.324219-.546875 4.625-.851562 6.9375-.308594 2.3125-.648438 4.585938-1.007813 6.878907-.359375 2.296874-.742187 4.566406-1.152344 6.828124-.394531 2.226563.113281 4.523438 1.410157 6.378907 1.300781 1.855469 3.28125 3.117187 5.511718 3.511719.492188.082031.992188.125 1.492188.125 4.136718 0 7.675781-2.972657 8.398437-7.046876.417969-2.378906.851563-4.777343 1.203125-7.167968.347656-2.390625.730469-4.828125 1.054688-7.234375.324218-2.410157.632812-4.855469.90625-7.296875.273437-2.441406.527344-4.875.757812-7.347656.230469-2.476563.421875-4.90625.589844-7.390626.171875-2.484374.316406-4.941406.425781-7.414062.113281-2.476562.207031-4.984375.265625-7.492188.058594-2.511718.085938-5.011718.085938-7.519531.015625-8.660156-.84375-17.300781-2.558594-25.789062-1.703125-8.238281-4.21875-16.292969-7.511719-24.035157-9.453125-22.289062-25.011719-41.453124-44.875-55.289062-2.503906-1.742188-5.746093-2.015625-8.503906-.714844-2.757813 1.296875-4.617187 3.964844-4.871094 7.003906-.257812 3.039063 1.125 5.980469 3.628907 7.722657 5.402343 3.773437 10.464843 8.011719 15.121093 12.671875zm0 0"/></svg>